<svg id="Слой_1" data-name="Слой 1" xmlns="http://www.w3.org/2000/svg" viewBox="0 0 151.95 36.89"><defs><style>.cls-1{fill:#f33;}.cls-2{fill:#cc1212;}.cls-3{isolation:isolate;opacity:0.2;}</style></defs><path d="M47.41,25.6A6.38,6.38,0,0,1,41,19.2a6.38,6.38,0,0,1,6.4-6.41,6.47,6.47,0,0,1,3.87,1.29V6.35h2.57V25.67H52.56l-1.28-1.29A6.76,6.76,0,0,1,47.41,25.6Zm0-2.57a3.87,3.87,0,0,0,2.74-6.6,3.87,3.87,0,0,0-5.47,5.47A3.81,3.81,0,0,0,47.41,23Z" transform="translate(-0.2 -0.72)"/><path d="M64.57,21.9l1.83,1.83A6.41,6.41,0,0,1,55.46,19.2a6.42,6.42,0,1,1,12.71,1.28h-10a3.92,3.92,0,0,0,3.67,2.58A3.9,3.9,0,0,0,64.57,21.9ZM59.1,16.43a4.69,4.69,0,0,0-.94,1.45h7.31a3.67,3.67,0,0,0-.93-1.45,3.84,3.84,0,0,0-5.44,0Z" transform="translate(-0.2 -0.72)"/><path d="M69.85,25.6V6.29h2.57V14a6.53,6.53,0,0,1,3.87-1.28,6.37,6.37,0,0,1,6.4,6.4,6.38,6.38,0,0,1-6.4,6.41,6.34,6.34,0,0,1-3.87-1.29l-1.28,1.29H69.85Zm6.44-10.3a3.87,3.87,0,0,0-2.74,6.6A3.87,3.87,0,0,0,79,16.43,3.76,3.76,0,0,0,76.29,15.3Z" transform="translate(-0.2 -0.72)"/><path class="cls-1" d="M93.44,21.9l1.84,1.83a6.19,6.19,0,0,1-4.57,1.87,6.38,6.38,0,0,1-6.41-6.4,6.38,6.38,0,0,1,6.41-6.41,6.28,6.28,0,0,1,4.57,1.87,6.17,6.17,0,0,1,1.77,5.82h-10a3.83,3.83,0,0,0,6.37,1.42ZM88,16.43A4.49,4.49,0,0,0,87,17.88h7.3a3.67,3.67,0,0,0-.93-1.45,3.77,3.77,0,0,0-2.74-1.13A3.69,3.69,0,0,0,88,16.43Z" transform="translate(-0.2 -0.72)"/><path class="cls-1" d="M100.62,12.73l2.25,3.89,2.22-3.89H108l-3.67,6.43L108,25.6h-2.93l-2.22-3.86-2.22,3.86h-3l3.7-6.44-3.67-6.43Z" transform="translate(-0.2 -0.72)"/><path class="cls-1" d="M116,12.73a6.37,6.37,0,0,1,6.41,6.4A6.38,6.38,0,0,1,116,25.54a6.47,6.47,0,0,1-3.86-1.29V32h-2.57V12.66h1.28L112.14,14A6.75,6.75,0,0,1,116,12.73Zm0,2.57a3.87,3.87,0,0,0-2.73,6.6,3.87,3.87,0,0,0,5.47-5.47A3.77,3.77,0,0,0,116,15.3Z" transform="translate(-0.2 -0.72)"/><path class="cls-1" d="M133.16,21.9,135,23.73a6.41,6.41,0,0,1-10.94-4.53,6.42,6.42,0,1,1,12.71,1.28h-10a3.92,3.92,0,0,0,3.67,2.58A3.72,3.72,0,0,0,133.16,21.9Zm-5.47-5.47a4.69,4.69,0,0,0-.94,1.45h7.31a3.67,3.67,0,0,0-.93-1.45,3.78,3.78,0,0,0-2.74-1.13A3.69,3.69,0,0,0,127.69,16.43Z" transform="translate(-0.2 -0.72)"/><path class="cls-1" d="M140.05,12.73,141.33,14a6.53,6.53,0,0,1,3.87-1.28V15.3a3.86,3.86,0,0,0-3.87,3.86V25.6h-2.57V12.73Z" transform="translate(-0.2 -0.72)"/><path class="cls-1" d="M151.86,12.73V15.3h-2.58v4.8a2.9,2.9,0,0,0,.84,2.06,2.69,2.69,0,0,0,2,.83v2.58a5.5,5.5,0,0,1-5.47-5.5V6.29h2.57v6.44Z" transform="translate(-0.2 -0.72)"/><path class="cls-2" d="M17.51,37.61h-12L.39,28.05H17.51c6,0,7.5-5.83,7.5-8.89s-1.54-8.85-7.5-8.85H.23L5.48.72h12C27.68.72,34.35,9,34.35,19.16S27.68,37.61,17.51,37.61Z" transform="translate(-0.2 -0.72)"/><polyline class="cls-3" points="0 27.33 5.12 36.89 5.12 36.89 13.81 27.33"/><polyline class="cls-3" points="13.81 9.59 5.12 0 5.12 0 0.19 9.59"/><polygon class="cls-1" points="5.25 0 0.03 9.59 4.44 18.44 0 27.33 5.28 36.79 14.42 18.44 5.25 0"/></svg>